<svg  fill="#ccd6dd" version="1.0" xmlns="http://www.w3.org/2000/svg" width="100" height="100" xml:space="preserve">
    <path d="M81.823 72.448c-2.377-1.094-5.222-1.071-7.656.335a8.321 8.321 0 0 0-4.138 6.572A52.505 52.505 0 0 1 50 83.333c-7.56 0-14.518-2.047-20.117-5.452.37-2.517-.386-5.169-2.324-7.106a8.322 8.322 0 0 0-7.399-2.298c-2.215-3.564-3.493-7.565-3.493-11.81C16.667 41.963 31.62 30 50 30c10.84 0 20 6.104 20 13.333 0 4.007-2.822 7.663-7.181 10.133.303-1.113.514-2.259.514-3.467 0-7.363-5.97-13.333-13.333-13.333-14.723 0-26.667 8.955-26.667 20 0 11.041 11.943 20 26.667 20 22.087 0 40-14.929 40-33.333 0-5.619-1.687-10.905-4.636-15.55 2.045-3.223 1.674-7.533-1.139-10.342-2.888-2.891-7.36-3.2-10.605-.963C66.995 12.425 58.848 10 50 10c-7.959 0-15.504 1.543-22.284 4.297-2.589-2.75-6.805-3.486-10.216-1.514-3.462 1.999-4.94 6.107-3.761 9.766A51.132 51.132 0 0 0 10 25.902v10.267c2.241-3.2 5.024-6.074 8.177-8.616 2.375 1.094 5.221 1.071 7.656-.335a8.317 8.317 0 0 0 4.136-6.572A52.463 52.463 0 0 1 50 16.668c7.559 0 14.519 2.048 20.117 5.453-.371 2.516.384 5.169 2.324 7.106a8.313 8.313 0 0 0 7.399 2.295c2.217 3.568 3.492 7.568 3.492 11.813C83.333 58.037 68.379 70 50 70c-10.84 0-20-6.106-20-13.333 0-4.011 2.822-7.667 7.179-10.134-.301 1.11-.513 2.259-.513 3.467 0 7.363 5.97 13.333 13.333 13.333 14.724 0 26.667-8.955 26.667-20s-11.943-20-26.667-20c-22.086 0-40 14.925-40 33.333 0 5.618 1.686 10.904 4.635 15.55-2.042 3.223-1.671 7.532 1.14 10.342 2.887 2.888 7.36 3.2 10.605.964C33.004 87.575 41.154 90 50 90c7.956 0 15.505-1.543 22.285-4.297 2.588 2.751 6.804 3.483 10.215 1.514 3.464-1.999 4.941-6.106 3.763-9.766A51.308 51.308 0 0 0 90 74.098V63.831c-2.239 3.2-5.026 6.074-8.177 8.617zM21.667 22.5a2.5 2.5 0 0 1 0-5 2.5 2.5 0 0 1 0 5zm56.666 3.333a2.5 2.5 0 1 1 .002-5.002 2.5 2.5 0 0 1-.002 5.002zM50 56.667a6.667 6.667 0 1 1 0-13.334 6.667 6.667 0 0 1 0 13.334zm-28.333 22.5a2.5 2.5 0 1 1 .002-5.002 2.5 2.5 0 0 1-.002 5.002zM78.333 82.5a2.5 2.5 0 1 1 .002-5.002 2.5 2.5 0 0 1-.002 5.002z"/>
</svg>